<svg preserveAspectRatio="none" width="100%" height="100%" overflow="visible" style="display: block;" viewBox="0 0 63 63" fill="none" xmlns="http://www.w3.org/2000/svg">
<g id="arrow-small-down 1">
<path id="Arrow 3" d="M12.9192 6.75726C12.1758 5.94029 10.9109 5.88066 10.0939 6.62406C9.27697 7.36745 9.21733 8.63238 9.96073 9.44934L11.44 8.1033L12.9192 6.75726ZM48.4658 50.8945C49.5692 50.9465 50.5058 50.0942 50.5578 48.9909L51.4055 31.0109C51.4575 29.9075 50.6053 28.9709 49.5019 28.9189C48.3986 28.8669 47.462 29.7191 47.4099 30.8225L46.6564 46.8047L30.6742 46.0512C29.5708 45.9992 28.6342 46.8515 28.5822 47.9548C28.5302 49.0582 29.3825 49.9948 30.4858 50.0468L48.4658 50.8945ZM11.44 8.1033L9.96073 9.44934L47.0808 50.2427L48.56 48.8967L50.0393 47.5507L12.9192 6.75726L11.44 8.1033Z" fill="var(--stroke-0, white)"/>
</g>
</svg>
