<svg preserveAspectRatio="none" width="100%" height="100%" overflow="visible" style="display: block;" viewBox="0 0 57 57" fill="none" xmlns="http://www.w3.org/2000/svg">
<g id="loading 1" clip-path="url(#clip0_0_17)">
<path id="Vector" d="M30.875 2.375V7.125C30.875 7.75489 30.6248 8.35898 30.1794 8.80438C29.734 9.24978 29.1299 9.5 28.5 9.5C27.8701 9.5 27.266 9.24978 26.8206 8.80438C26.3752 8.35898 26.125 7.75489 26.125 7.125V2.375C26.125 1.74511 26.3752 1.14102 26.8206 0.695621C27.266 0.250223 27.8701 0 28.5 0C29.1299 0 29.734 0.250223 30.1794 0.695621C30.6248 1.14102 30.875 1.74511 30.875 2.375ZM28.5 47.5C27.8701 47.5 27.266 47.7502 26.8206 48.1956C26.3752 48.641 26.125 49.2451 26.125 49.875V54.625C26.125 55.2549 26.3752 55.859 26.8206 56.3044C27.266 56.7498 27.8701 57 28.5 57C29.1299 57 29.734 56.7498 30.1794 56.3044C30.6248 55.859 30.875 55.2549 30.875 54.625V49.875C30.875 49.2451 30.6248 48.641 30.1794 48.1956C29.734 47.7502 29.1299 47.5 28.5 47.5ZM9.5 28.5C9.5 27.8701 9.24978 27.266 8.80438 26.8206C8.35898 26.3752 7.75489 26.125 7.125 26.125H2.375C1.74511 26.125 1.14102 26.3752 0.695621 26.8206C0.250223 27.266 0 27.8701 0 28.5C0 29.1299 0.250223 29.734 0.695621 30.1794C1.14102 30.6248 1.74511 30.875 2.375 30.875H7.125C7.75489 30.875 8.35898 30.6248 8.80438 30.1794C9.24978 29.734 9.5 29.1299 9.5 28.5ZM54.625 26.125H49.875C49.2451 26.125 48.641 26.3752 48.1956 26.8206C47.7502 27.266 47.5 27.8701 47.5 28.5C47.5 29.1299 47.7502 29.734 48.1956 30.1794C48.641 30.6248 49.2451 30.875 49.875 30.875H54.625C55.2549 30.875 55.859 30.6248 56.3044 30.1794C56.7498 29.734 57 29.1299 57 28.5C57 27.8701 56.7498 27.266 56.3044 26.8206C55.859 26.3752 55.2549 26.125 54.625 26.125ZM42.7927 3.84275C42.5228 3.68624 42.2247 3.58446 41.9155 3.5432C41.6062 3.50195 41.2918 3.52204 40.9903 3.60232C40.6888 3.6826 40.4061 3.82151 40.1583 4.0111C39.9105 4.20068 39.7025 4.43724 39.5461 4.70725L37.1711 8.81838C36.856 9.36357 36.7703 10.0116 36.9329 10.62C37.0954 11.2284 37.4929 11.7473 38.038 12.0626C38.3982 12.2733 38.8082 12.384 39.2255 12.3833C39.6424 12.3832 40.0519 12.2735 40.413 12.065C40.774 11.8566 41.0738 11.5568 41.2822 11.1958L43.6572 7.08463C43.9718 6.53993 44.0575 5.89268 43.8954 5.28491C43.7333 4.67714 43.3368 4.15849 42.7927 3.84275ZM18.9691 44.9374C18.4242 44.622 17.7764 44.536 17.1681 44.6981C16.5597 44.8602 16.0406 45.2572 15.7249 45.8019L13.3499 49.913C13.0345 50.4579 12.9485 51.1057 13.1106 51.7141C13.2727 52.3224 13.6697 52.8415 14.2144 53.1572C14.5747 53.3677 14.9846 53.4784 15.4019 53.4779C15.8192 53.4783 16.2292 53.3687 16.5907 53.1603C16.9522 52.9518 17.2524 52.6518 17.461 52.2904L19.836 48.1792C20.1504 47.6343 20.2357 46.9868 20.0731 46.379C19.9106 45.7712 19.5136 45.2527 18.9691 44.9374ZM11.1981 15.7249L7.087 13.3499C6.54325 13.0573 5.90691 12.9879 5.3129 13.1566C4.71889 13.3252 4.21391 13.7186 3.90503 14.2532C3.59615 14.7879 3.50765 15.4219 3.65829 16.0207C3.80894 16.6195 4.18688 17.1361 4.712 17.461L8.82312 19.836C9.36687 20.1286 10.0032 20.198 10.5972 20.0293C11.1912 19.8607 11.6962 19.4673 12.0051 18.9326C12.314 18.398 12.4025 17.764 12.2518 17.1652C12.1012 16.5664 11.7232 16.0497 11.1981 15.7249ZM52.2856 39.5461L48.1745 37.1711C47.6308 36.8785 46.9944 36.8092 46.4004 36.9778C45.8064 37.1464 45.3014 37.5398 44.9925 38.0745C44.6836 38.6092 44.5951 39.2431 44.7458 39.8419C44.8964 40.4408 45.2744 40.9574 45.7995 41.2822L49.9106 43.6572C50.2709 43.8679 50.6808 43.9786 51.0981 43.9779C51.6209 43.9779 52.1291 43.8053 52.5439 43.4871C52.9586 43.1688 53.2568 42.7226 53.3921 42.2176C53.5274 41.7126 53.4923 41.1771 53.2923 40.6941C53.0922 40.2111 52.7384 39.8075 52.2856 39.5461ZM17.4539 4.70725C17.129 4.18213 16.6124 3.80419 16.0136 3.65354C15.4147 3.5029 14.7808 3.5914 14.2461 3.90028C13.7114 4.20916 13.3181 4.71414 13.1494 5.30815C12.9808 5.90216 13.0501 6.5385 13.3428 7.08225L15.7178 11.1934C15.9262 11.5544 16.226 11.8542 16.587 12.0627C16.9481 12.2711 17.3576 12.3809 17.7745 12.3809C18.1918 12.3816 18.6018 12.2709 18.962 12.0603C19.5071 11.7449 19.9046 11.226 20.0671 10.6176C20.2297 10.0092 20.144 9.3612 19.8289 8.816L17.4539 4.70725ZM41.2751 45.7947C40.9503 45.2696 40.4336 44.8917 39.8348 44.741C39.236 44.5904 38.602 44.6789 38.0674 44.9878C37.5327 45.2967 37.1393 45.8016 36.9707 46.3957C36.802 46.9897 36.8714 47.626 37.164 48.1697L39.539 52.2809C39.8639 52.806 40.3805 53.1839 40.9793 53.3346C41.5781 53.4852 42.2121 53.3967 42.7468 53.0878C43.2814 52.779 43.6748 52.274 43.8434 51.68C44.0121 51.086 43.9427 50.4496 43.6501 49.9059L41.2751 45.7947ZM46.9941 20.1448C47.411 20.1447 47.8206 20.035 48.1816 19.8265L52.2927 17.4515C52.8179 17.1266 53.1958 16.61 53.3465 16.0112C53.4971 15.4124 53.4086 14.7784 53.0997 14.2437C52.7908 13.7091 52.2859 13.3157 51.6918 13.1471C51.0978 12.9784 50.4615 13.0478 49.9177 13.3404L45.8066 15.7154C45.3551 15.9773 45.0024 16.3808 44.8031 16.8633C44.6039 17.3458 44.5692 17.8805 44.7043 18.3848C44.8395 18.889 45.1371 19.3346 45.551 19.6528C45.9649 19.9709 46.4721 20.1438 46.9941 20.1448ZM8.81838 37.164L4.70725 39.539C4.25451 39.8004 3.90067 40.2039 3.70062 40.6869C3.50056 41.1699 3.46547 41.7055 3.60078 42.2105C3.73609 42.7154 4.03425 43.1617 4.44901 43.4799C4.86377 43.7982 5.37195 43.9707 5.89475 43.9707C6.31207 43.9715 6.72201 43.8608 7.08225 43.6501L11.1934 41.2751C11.7185 40.9503 12.0964 40.4336 12.2471 39.8348C12.3977 39.236 12.3092 38.602 12.0003 38.0674C11.6915 37.5327 11.1865 37.1393 10.5925 36.9707C9.99846 36.802 9.36212 36.8714 8.81838 37.164Z" fill="var(--fill-0, white)"/>
</g>
<defs>
<clipPath id="clip0_0_17">
<rect width="57" height="57" fill="white"/>
</clipPath>
</defs>
</svg>
