<svg preserveAspectRatio="none" width="100%" height="100%" overflow="visible" style="display: block;" viewBox="0 0 365 49.4921" fill="none" xmlns="http://www.w3.org/2000/svg">
<g id="EV MARKET">
<path id="Vector" d="M356.986 0C357.923 0 358.861 0.0351505 359.798 0.105452C360.759 0.175753 361.626 0.374939 362.399 0.70301C363.173 1.03108 363.794 1.53491 364.262 2.21448C364.754 2.87063 365 3.79626 365 4.99137C365 6.16306 364.754 7.08869 364.262 7.76827C363.794 8.42441 363.173 8.91652 362.399 9.24459C361.626 9.57266 360.759 9.78356 359.798 9.8773C358.861 9.9476 357.923 9.98275 356.986 9.98275H353.401V41.1964C353.401 42.2041 353.366 43.1883 353.295 44.1491C353.248 45.1098 353.061 45.9652 352.733 46.715C352.405 47.4649 351.878 48.0742 351.151 48.5429C350.425 48.9881 349.394 49.2107 348.058 49.2107C346.722 49.2107 345.691 48.9881 344.965 48.5429C344.238 48.0742 343.711 47.4649 343.383 46.715C343.055 45.9652 342.856 45.1098 342.785 44.1491C342.738 43.1883 342.715 42.2041 342.715 41.1964V9.98275H339.13C338.192 9.98275 337.243 9.9476 336.282 9.8773C335.345 9.78356 334.49 9.57266 333.716 9.24459C332.943 8.91652 332.31 8.42441 331.818 7.76827C331.35 7.08869 331.115 6.16306 331.115 4.99137C331.115 3.79626 331.35 2.87063 331.818 2.21448C332.31 1.53491 332.943 1.03108 333.716 0.70301C334.49 0.374939 335.345 0.175753 336.282 0.105452C337.243 0.0351505 338.192 0 339.13 0H356.986Z" fill="var(--fill-0, #051C2E)"/>
<path id="Vector_2" d="M320.081 0C321.019 0 321.968 0.0351505 322.929 0.105452C323.889 0.175753 324.756 0.374939 325.53 0.70301C326.303 1.03108 326.936 1.53491 327.428 2.21448C327.92 2.87063 328.166 3.79626 328.166 4.99137C328.166 6.18649 327.92 7.12384 327.428 7.80342C326.936 8.45956 326.303 8.95167 325.53 9.27974C324.756 9.60781 323.889 9.807 322.929 9.8773C321.968 9.9476 321.019 9.98275 320.081 9.98275H311.716V19.5437H316.145C317.082 19.5437 318.019 19.5788 318.957 19.6491C319.917 19.696 320.761 19.8835 321.487 20.2116C322.237 20.5162 322.847 20.9966 323.315 21.6527C323.784 22.2854 324.018 23.1759 324.018 24.3242C324.018 25.4958 323.784 26.398 323.315 27.0308C322.847 27.6635 322.237 28.1438 321.487 28.4719C320.761 28.7766 319.917 28.964 318.957 29.0343C318.019 29.0812 317.082 29.1046 316.145 29.1046H311.716V39.228H320.081C321.019 39.228 321.968 39.2631 322.929 39.3334C323.889 39.4037 324.756 39.6029 325.53 39.931C326.303 40.2356 326.936 40.7277 327.428 41.4073C327.92 42.0635 328.166 42.9774 328.166 44.1491C328.166 45.3676 327.908 46.3167 327.393 46.9962C326.901 47.6758 326.268 48.1796 325.495 48.5077C324.721 48.8358 323.854 49.035 322.893 49.1053C321.933 49.1756 320.995 49.2107 320.081 49.2107H306.302C304.99 49.2107 303.971 48.9764 303.244 48.5077C302.541 48.039 302.026 47.4298 301.698 46.6799C301.37 45.9066 301.17 45.0395 301.1 44.0788C301.053 43.118 301.03 42.1338 301.03 41.1261V8.08462C301.03 7.07697 301.053 6.09276 301.1 5.13198C301.17 4.1712 301.37 3.31587 301.698 2.56599C302.026 1.79268 302.541 1.17168 303.244 0.70301C303.971 0.234337 304.99 0 306.302 0H320.081Z" fill="var(--fill-0, #051C2E)"/>
<path id="Vector_3" d="M260.886 8.01432C260.886 7.00667 260.932 6.02246 261.026 5.06168C261.12 4.10089 261.342 3.24557 261.694 2.49569C262.045 1.74581 262.573 1.14825 263.276 0.70301C263.979 0.234337 264.94 0 266.158 0C267.4 0 268.384 0.234337 269.111 0.70301C269.837 1.14825 270.376 1.74581 270.728 2.49569C271.103 3.24557 271.337 4.10089 271.431 5.06168C271.524 6.02246 271.571 7.00667 271.571 8.01432V20.6685H275.578C276.352 18.6532 277.125 16.6731 277.898 14.7281C278.226 13.9079 278.566 13.0643 278.918 12.1972C279.269 11.3068 279.609 10.4397 279.937 9.59609C280.289 8.75248 280.617 7.94402 280.921 7.17071C281.249 6.37396 281.554 5.67095 281.835 5.06168C282.116 4.40553 282.409 3.77282 282.714 3.16355C283.042 2.55427 283.417 2.0153 283.839 1.54662C284.261 1.07795 284.729 0.70301 285.245 0.421806C285.784 0.140602 286.405 0 287.108 0C287.787 0 288.455 0.105452 289.111 0.316355C289.768 0.527258 290.353 0.843613 290.869 1.26542C291.384 1.68723 291.795 2.20277 292.099 2.81204C292.427 3.42132 292.591 4.12433 292.591 4.92107C292.591 5.53035 292.486 6.25679 292.275 7.10041C292.087 7.92058 291.818 8.74076 291.466 9.56094L285.139 24.5351C286.358 24.9803 287.436 25.7068 288.373 26.7144C288.772 27.1362 289.158 27.6517 289.533 28.261C289.932 28.8469 290.283 29.5382 290.588 30.3349C290.892 31.1316 291.138 32.0456 291.326 33.0766C291.513 34.0843 291.607 35.2208 291.607 36.4862V41.4776C291.607 41.7354 291.701 41.9463 291.888 42.1103C292.076 42.2744 292.263 42.4618 292.451 42.6727C292.919 43.2117 293.189 43.6804 293.259 44.0788C293.329 44.4771 293.365 44.8052 293.365 45.063C293.365 45.9066 293.201 46.6096 292.873 47.172C292.568 47.7344 292.146 48.1914 291.607 48.5429C291.092 48.8944 290.482 49.1404 289.779 49.281C289.1 49.4216 288.397 49.4919 287.67 49.4919C286.897 49.4919 286.112 49.3748 285.315 49.1404C284.518 48.9061 283.792 48.5546 283.136 48.0859C282.48 47.5938 281.941 46.9845 281.519 46.2581C281.121 45.5316 280.921 44.688 280.921 43.7273V36.4862C280.921 35.4786 280.851 34.5412 280.71 33.6742C280.57 32.7837 280.3 32.0221 279.902 31.3894C279.504 30.7333 278.953 30.2295 278.25 29.8779C277.547 29.503 276.633 29.3155 275.508 29.3155H271.571V41.1261C271.571 42.1572 271.524 43.1531 271.431 44.1139C271.337 45.0747 271.103 45.9417 270.728 46.715C270.376 47.4649 269.837 48.0742 269.111 48.5429C268.384 48.9881 267.4 49.2107 266.158 49.2107C264.94 49.2107 263.979 48.9881 263.276 48.5429C262.573 48.0742 262.045 47.4649 261.694 46.715C261.342 45.9417 261.12 45.0747 261.026 44.1139C260.932 43.1531 260.886 42.1572 260.886 41.1261V8.01432Z" fill="var(--fill-0, #051C2E)"/>
<path id="Vector_4" d="M220.817 8.01432C220.817 7.00667 220.84 6.02246 220.887 5.06168C220.957 4.10089 221.157 3.24557 221.485 2.49569C221.813 1.74581 222.328 1.14825 223.031 0.70301C223.758 0.234337 224.777 0 226.089 0H237.689C240.571 0.140602 243.149 0.749878 245.422 1.82783C246.383 2.2965 247.32 2.88234 248.234 3.58535C249.171 4.26493 250.003 5.12026 250.73 6.15134C251.456 7.15899 252.042 8.35411 252.487 9.7367C252.933 11.1193 253.155 12.7245 253.155 14.5523C253.155 14.9273 253.12 15.4311 253.05 16.0638C252.979 16.6731 252.827 17.3526 252.593 18.1025C252.358 18.829 252.042 19.5906 251.644 20.3873C251.245 21.184 250.718 21.9456 250.062 22.6721C249.406 23.3985 248.597 24.0664 247.637 24.6757C246.699 25.2849 245.586 25.7771 244.297 26.152C245.117 26.4801 245.949 26.9136 246.793 27.4526C247.637 27.9681 248.398 28.636 249.078 29.4561C249.757 30.2763 250.308 31.2605 250.73 32.4088C251.175 33.557 251.398 34.8928 251.398 36.4159V41.4073C251.398 41.6885 251.468 41.9229 251.609 42.1103C251.749 42.2978 251.89 42.4618 252.03 42.6024C252.593 43.1648 252.921 43.657 253.015 44.0788C253.108 44.4771 253.155 44.8052 253.155 45.063C253.155 45.8832 252.991 46.5744 252.663 47.1369C252.335 47.6993 251.902 48.1562 251.363 48.5077C250.847 48.8592 250.249 49.1053 249.57 49.2459C248.914 49.4099 248.234 49.4919 247.531 49.4919C246.758 49.4919 245.973 49.3748 245.176 49.1404C244.379 48.8827 243.653 48.5194 242.997 48.0508C242.341 47.5821 241.802 46.9963 241.38 46.2932C240.981 45.5902 240.782 44.7818 240.782 43.8679V36.4159C240.782 35.3849 240.712 34.4358 240.571 33.5688C240.431 32.7017 240.161 31.9518 239.763 31.3191C239.364 30.6864 238.814 30.1943 238.111 29.8428C237.408 29.4913 236.494 29.3155 235.369 29.3155H231.432V41.0558C231.432 42.0869 231.397 43.0945 231.327 44.0788C231.28 45.063 231.092 45.9417 230.764 46.715C230.436 47.4649 229.909 48.0742 229.183 48.5429C228.456 48.9881 227.425 49.2107 226.089 49.2107C224.777 49.2107 223.758 48.9881 223.031 48.5429C222.328 48.0742 221.813 47.4649 221.485 46.715C221.157 45.9417 220.957 45.063 220.887 44.0788C220.84 43.0945 220.817 42.0869 220.817 41.0558V8.01432ZM236.213 21.4418C237.384 21.395 238.439 21.1137 239.376 20.5982C239.775 20.3873 240.161 20.1178 240.536 19.7897C240.911 19.4617 241.251 19.0516 241.556 18.5595C241.86 18.0674 242.095 17.4932 242.259 16.8371C242.446 16.181 242.54 15.4194 242.54 14.5523C242.54 13.779 242.446 13.0994 242.259 12.5136C242.095 11.9043 241.872 11.3771 241.591 10.9318C241.309 10.4866 240.981 10.1116 240.606 9.807C240.255 9.50236 239.892 9.2563 239.517 9.06884C238.626 8.6236 237.619 8.36582 236.494 8.29552H231.432V21.4418H236.213Z" fill="var(--fill-0, #051C2E)"/>
<path id="Vector_5" d="M190.867 27.9798H202.045L196.842 9.13914H196.069L190.867 27.9798ZM212.941 31.4246C212.988 33.0181 213.047 34.6467 213.117 36.3105C213.187 37.9743 213.223 39.5795 213.223 41.1261V42.1806C213.223 43.0711 213.187 43.9382 213.117 44.7818C213.07 45.6019 212.895 46.3518 212.59 47.0314C212.285 47.6875 211.805 48.2148 211.149 48.6132C210.493 49.0115 209.567 49.2107 208.372 49.2107C207.153 49.2107 206.216 49.0115 205.56 48.6132C204.904 48.2148 204.412 47.6875 204.084 47.0314C203.779 46.3753 203.591 45.6254 203.521 44.7818C203.474 43.9382 203.451 43.0711 203.451 42.1806V37.2596H189.391V42.1806C189.391 43.0711 189.355 43.9382 189.285 44.7818C189.238 45.6254 189.051 46.3753 188.723 47.0314C188.418 47.6875 187.938 48.2148 187.282 48.6132C186.625 49.0115 185.688 49.2107 184.47 49.2107C183.251 49.2107 182.314 49.0115 181.657 48.6132C181.001 48.2148 180.521 47.6875 180.216 47.0314C179.912 46.3518 179.736 45.6019 179.689 44.7818C179.642 43.9382 179.619 43.0711 179.619 42.1806V41.1261C179.619 40.3997 179.619 39.6264 179.619 38.8062C179.642 37.986 179.666 37.1541 179.689 36.3105C179.712 35.4669 179.736 34.635 179.759 33.8148C179.783 32.9712 179.806 32.1744 179.83 31.4246C181.001 27.3471 182.232 23.2228 183.52 19.0516C184.809 14.857 186.04 10.7092 187.211 6.6083C187.446 5.74125 187.727 4.90936 188.055 4.11261C188.383 3.29243 188.816 2.58942 189.355 2.00358C189.894 1.3943 190.586 0.913914 191.429 0.562408C192.273 0.187469 193.351 0 194.663 0H198.178C199.467 0 200.533 0.187469 201.377 0.562408C202.244 0.913914 202.947 1.3943 203.486 2.00358C204.025 2.58942 204.447 3.29243 204.751 4.11261C205.079 4.90936 205.372 5.74125 205.63 6.6083L212.941 31.4246Z" fill="var(--fill-0, #051C2E)"/>
<path id="Vector_6" d="M148.546 37.822C147.866 37.822 147.28 37.6931 146.788 37.4353C146.32 37.1775 145.909 36.8495 145.558 36.4511C145.206 36.0527 144.902 35.6075 144.644 35.1154C144.41 34.6233 144.211 34.1429 144.047 33.6742L137.368 14.4117H136.454V43.7273C136.454 44.4771 136.407 45.1801 136.313 45.8363C136.22 46.4924 136.009 47.0783 135.681 47.5938C135.376 48.0859 134.907 48.4843 134.275 48.7889C133.665 49.0701 132.822 49.2107 131.744 49.2107C130.525 49.2107 129.564 49.0701 128.861 48.7889C128.158 48.4843 127.631 48.0859 127.28 47.5938C126.928 47.0783 126.706 46.4924 126.612 45.8363C126.518 45.1801 126.471 44.4771 126.471 43.7273V8.01432C126.471 7.00667 126.495 6.02246 126.542 5.06168C126.612 4.10089 126.811 3.24557 127.139 2.49569C127.467 1.74581 127.983 1.14825 128.686 0.70301C129.412 0.234337 130.432 0 131.744 0H136.524C137.321 0 137.989 0.0351505 138.528 0.105452C139.09 0.152319 139.606 0.351505 140.074 0.70301C140.543 1.03108 141 1.57006 141.445 2.31993C141.914 3.06981 142.418 4.13605 142.957 5.51863C143.519 6.87779 144.164 8.6236 144.89 10.7561C145.617 12.8651 146.507 15.4662 147.562 18.5595L148.475 21.3715H149.319L150.444 17.8565C151.405 14.9038 152.225 12.4081 152.904 10.3694C153.584 8.33067 154.182 6.65517 154.697 5.34288C155.213 4.00716 155.67 2.98779 156.068 2.28478C156.49 1.55834 156.923 1.03108 157.369 0.70301C157.837 0.351505 158.341 0.152319 158.88 0.105452C159.419 0.0351505 160.075 0 160.848 0H165.98C167.293 0 168.3 0.234337 169.003 0.70301C169.73 1.14825 170.257 1.74581 170.585 2.49569C170.913 3.24557 171.101 4.10089 171.148 5.06168C171.218 6.02246 171.253 7.00667 171.253 8.01432V43.7273C171.253 44.4771 171.206 45.1801 171.112 45.8363C171.019 46.4924 170.796 47.0783 170.445 47.5938C170.093 48.0859 169.566 48.4843 168.863 48.7889C168.16 49.0701 167.199 49.2107 165.98 49.2107C164.902 49.2107 164.047 49.0701 163.414 48.7889C162.805 48.4843 162.336 48.0859 162.008 47.5938C161.704 47.0783 161.505 46.4924 161.411 45.8363C161.317 45.1801 161.27 44.4771 161.27 43.7273V14.4117H160.286L153.678 33.6742C153.49 34.1429 153.279 34.6233 153.045 35.1154C152.811 35.6075 152.518 36.0527 152.166 36.4511C151.815 36.8495 151.405 37.1775 150.936 37.4353C150.467 37.6931 149.905 37.822 149.249 37.822H148.546Z" fill="var(--fill-0, #051C2E)"/>
<path id="Vector_7" d="M59.4054 0C60.085 0 60.7411 0.117168 61.3738 0.351505C62.0065 0.585842 62.5572 0.902197 63.0259 1.30057C63.518 1.69894 63.9046 2.17933 64.1858 2.74174C64.467 3.28072 64.6077 3.86656 64.6077 4.49927C64.6077 4.8039 64.5842 5.09683 64.5374 5.37803C64.5139 5.6358 64.4788 5.87014 64.4319 6.08104C64.3616 6.33881 64.303 6.56143 64.2561 6.7489C62.6627 13.0057 60.9989 19.3914 59.2648 25.9059C57.5307 32.3971 55.8669 38.7593 54.2734 44.9927C53.9219 45.7894 53.4532 46.4924 52.8674 47.1017C52.3753 47.6407 51.7308 48.1328 50.9341 48.578C50.1608 48.9998 49.1883 49.2107 48.0166 49.2107H46.8918C45.7201 49.2107 44.7359 48.9998 43.9391 48.578C43.1424 48.1328 42.498 47.6407 42.0059 47.1017C41.42 46.4924 40.9631 45.7894 40.635 44.9927L30.6522 6.7489C30.5819 6.56143 30.5234 6.33881 30.4765 6.08104C30.3593 5.61237 30.3007 5.08511 30.3007 4.49927C30.3007 3.86656 30.4296 3.28072 30.6874 2.74174C30.9686 2.17933 31.3435 1.69894 31.8122 1.30057C32.2809 0.902197 32.8316 0.585842 33.4643 0.351505C34.097 0.117168 34.7766 0 35.503 0C36.6278 0 37.53 0.246054 38.2096 0.738161C38.9126 1.23027 39.4633 1.78096 39.8617 2.39024C40.3069 3.09325 40.635 3.88999 40.8459 4.78047C41.1271 5.90529 41.4317 7.18242 41.7598 8.61188C42.0879 10.0179 42.416 11.4825 42.744 13.0057C43.0721 14.5289 43.4002 16.0872 43.7282 17.6807C44.0797 19.2508 44.4078 20.774 44.7125 22.2503C45.4389 25.7185 46.1653 29.2687 46.8918 32.9009H48.0166C48.8134 29.2687 49.5867 25.7185 50.3365 22.2503C50.6412 20.774 50.9575 19.2508 51.2856 17.6807C51.6371 16.0872 51.9769 14.5289 52.305 13.0057C52.633 11.4825 52.9494 10.0179 53.254 8.61188C53.5587 7.18242 53.8282 5.90529 54.0625 4.78047C54.2968 3.88999 54.6366 3.09325 55.0819 2.39024C55.4802 1.78096 56.0192 1.23027 56.6988 0.738161C57.3784 0.246054 58.2806 0 59.4054 0Z" fill="var(--fill-0, #051C2E)"/>
<path id="Vector_8" d="M19.0516 0.000209109C19.9889 0.000209109 20.938 0.0353596 21.8988 0.105661C22.8596 0.175962 23.7266 0.375148 24.4999 0.70322C25.2732 1.03129 25.9059 1.53512 26.398 2.21469C26.8901 2.87084 27.1362 3.79647 27.1362 4.99158C27.1362 6.1867 26.8901 7.12405 26.398 7.80363C25.9059 8.45977 25.2732 8.95188 24.4999 9.27995C23.7266 9.60802 22.8596 9.80721 21.8988 9.87751C20.938 9.94781 19.9889 9.98296 19.0516 9.98296H10.6858V19.5439H15.1147C16.0521 19.5439 16.9894 19.5791 17.9268 19.6494C18.8875 19.6962 19.7312 19.8837 20.4576 20.2118C21.2075 20.5164 21.8168 20.9968 22.2854 21.6529C22.7541 22.2856 22.9884 23.1761 22.9884 24.3244C22.9884 25.4961 22.7541 26.3983 22.2854 27.031C21.8168 27.6637 21.2075 28.1441 20.4576 28.4721C19.7312 28.7768 18.8875 28.9642 17.9268 29.0345C16.9894 29.0814 16.0521 29.1048 15.1147 29.1048H10.6858V39.2282H19.0516C19.9889 39.2282 20.938 39.2633 21.8988 39.3336C22.8596 39.4039 23.7266 39.6031 24.4999 39.9312C25.2732 40.2358 25.9059 40.7279 26.398 41.4075C26.8901 42.0637 27.1362 42.9776 27.1362 44.1493C27.1362 45.3678 26.8784 46.3169 26.3629 46.9965C25.8708 47.676 25.2381 48.1799 24.4648 48.5079C23.6915 48.836 22.8244 49.0352 21.8636 49.1055C20.9028 49.1758 19.9655 49.2109 19.0516 49.2109H5.27258C3.96029 49.2109 2.94093 48.9766 2.21448 48.5079C1.51147 48.0393 0.995931 47.43 0.66786 46.6801C0.339788 45.9068 0.140602 45.0397 0.070301 44.079C0.0234337 43.1182 0 42.134 0 41.1263V8.08483C0 7.07718 0.0234337 6.09297 0.070301 5.13219C0.140602 4.1714 0.339788 3.31608 0.66786 2.5662C0.995931 1.79289 1.51147 1.17189 2.21448 0.70322C2.94093 0.234546 3.96029 0.000209109 5.27258 0.000209109H19.0516Z" fill="var(--fill-0, #051C2E)"/>
</g>
</svg>
