<svg preserveAspectRatio="none" width="100%" height="100%" overflow="visible" style="display: block;" viewBox="0 0 20 20" fill="none" xmlns="http://www.w3.org/2000/svg">
<g id="Frame">
<path id="Vector" d="M16.3352 16.339H13.6697V12.1622C13.6697 11.1662 13.6495 9.8845 12.2807 9.8845C10.891 9.8845 10.6787 10.9683 10.6787 12.0887V16.339H8.01322V7.75H10.5737V8.9207H10.6082C10.966 8.2457 11.836 7.53325 13.1357 7.53325C15.8365 7.53325 16.336 9.3108 16.336 11.6245L16.3352 16.339ZM5.00275 6.57475C4.14475 6.57475 3.4555 5.88025 3.4555 5.026C3.4555 4.1725 4.1455 3.47875 5.00275 3.47875C5.85775 3.47875 6.55075 4.1725 6.55075 5.026C6.55075 5.88025 5.857 6.57475 5.00275 6.57475ZM6.33925 16.339H3.66625V7.75H6.33925V16.339ZM17.6687 1H2.32825C1.594 1 1 1.5805 1 2.29675V17.7033C1 18.4202 1.594 19 2.32825 19H17.6665C18.4 19 19 18.4202 19 17.7033V2.29675C19 1.5805 18.4 1 17.6665 1H17.6687Z" fill="var(--fill-0, white)"/>
</g>
</svg>
