<svg preserveAspectRatio="none" width="100%" height="100%" overflow="visible" style="display: block;" viewBox="0 0 29 29" fill="none" xmlns="http://www.w3.org/2000/svg">
<g id="angle-double-right 2" clip-path="url(#clip0_0_7)">
<path id="Vector" d="M14.2954 29C14.1364 29.0009 13.9788 28.9704 13.8315 28.9103C13.6843 28.8502 13.5504 28.7616 13.4375 28.6496C13.3242 28.5372 13.2344 28.4036 13.173 28.2564C13.1117 28.1091 13.0801 27.9512 13.0801 27.7917C13.0801 27.6322 13.1117 27.4742 13.173 27.327C13.2344 27.1797 13.3242 27.0461 13.4375 26.9337L23.3096 17.0617C23.9884 16.382 24.3697 15.4606 24.3697 14.5C24.3697 13.5394 23.9884 12.618 23.3096 11.9383L13.4375 2.06625C13.3248 1.95359 13.2355 1.81984 13.1745 1.67263C13.1135 1.52543 13.0821 1.36766 13.0821 1.20833C13.0821 0.886552 13.21 0.57795 13.4375 0.350417C13.665 0.122883 13.9736 -0.00494385 14.2954 -0.00494385C14.6172 -0.00494385 14.9258 0.122883 15.1533 0.350417L25.0254 10.2225C25.5881 10.7837 26.0344 11.4504 26.339 12.1844C26.6436 12.9184 26.8004 13.7053 26.8004 14.5C26.8004 15.2947 26.6436 16.0816 26.339 16.8156C26.0344 17.5496 25.5881 18.2163 25.0254 18.7775L15.1533 28.6496C15.0404 28.7616 14.9065 28.8502 14.7593 28.9103C14.6121 28.9704 14.4544 29.0009 14.2954 29Z" fill="var(--fill-0, #FF9100)"/>
<path id="Vector_2" d="M2.21125 29C2.05222 29.0009 1.89458 28.9704 1.74736 28.9103C1.60014 28.8502 1.46624 28.7616 1.35333 28.6496C1.24008 28.5372 1.15018 28.4036 1.08884 28.2564C1.02749 28.1091 0.99591 27.9512 0.99591 27.7917C0.99591 27.6321 1.02749 27.4742 1.08884 27.327C1.15018 27.1797 1.24008 27.0461 1.35333 26.9337L12.9413 15.3579C13.0545 15.2456 13.1444 15.1119 13.2057 14.9647C13.2671 14.8174 13.2987 14.6595 13.2987 14.5C13.2987 14.3405 13.2671 14.1825 13.2057 14.0353C13.1444 13.8881 13.0545 13.7544 12.9413 13.6421L1.35333 2.06625C1.1258 1.83872 0.997972 1.53011 0.997972 1.20833C0.997972 0.886552 1.1258 0.57795 1.35333 0.350416C1.58087 0.122883 1.88947 -0.00494448 2.21125 -0.00494448C2.53303 -0.00494448 2.84163 0.122883 3.06917 0.350416L14.645 11.9383C15.3238 12.618 15.7051 13.5394 15.7051 14.5C15.7051 15.4606 15.3238 16.382 14.645 17.0617L3.06917 28.6496C2.95626 28.7616 2.82236 28.8502 2.67514 28.9103C2.52792 28.9704 2.37027 29.0009 2.21125 29Z" fill="var(--fill-0, #FF9100)"/>
</g>
<defs>
<clipPath id="clip0_0_7">
<rect width="29" height="29" fill="white"/>
</clipPath>
</defs>
</svg>
