<svg preserveAspectRatio="none" width="100%" height="100%" overflow="visible" style="display: block;" viewBox="0 0 26 26" fill="none" xmlns="http://www.w3.org/2000/svg">
<path id="Vector" d="M24.6155 14.8954C25.4566 14.6263 26 13.8814 26 12.9987C26 12.116 25.4566 11.3711 24.5999 11.0968L17.1029 8.8972L14.9215 1.4105C14.6641 0.5655 13.9257 0.0117 13.043 0C12.1772 0.0364 11.4089 0.5226 11.1203 1.3819L8.89862 8.8959L1.41068 11.0786C0.565684 11.336 0.0118882 12.0744 0.000188307 12.9571C-0.0115116 13.8398 0.522784 14.5912 1.38208 14.8798L8.89862 17.1015L11.1034 24.6155C11.3725 25.4566 12.1174 26 13.0001 26C13.8828 26 14.6277 25.4566 14.902 24.5999L17.1029 17.1028L24.5999 14.9032L24.6155 14.898V14.8954ZM24.2255 13.6552L16.397 15.9536C16.1838 16.016 16.0187 16.1824 15.9563 16.3943L13.6605 24.2177C13.5175 24.6636 13.1197 24.6987 13.0014 24.6987C12.8831 24.6987 12.4853 24.6636 12.3475 24.2333L10.0465 16.3956C9.98412 16.1837 9.81902 16.0173 9.60712 15.9549L1.77468 13.6396C1.33008 13.4914 1.30148 13.0923 1.30278 12.974C1.30408 12.8557 1.34438 12.4579 1.78508 12.324L9.60712 10.0451C9.82032 9.984 9.98672 9.8176 10.0491 9.6057L12.3644 1.7732C12.51 1.339 12.8935 1.3013 13.0209 1.3013H13.0287C13.147 1.3026 13.5448 1.3429 13.6787 1.7836L15.9576 9.6044C16.02 9.8176 16.1851 9.984 16.3983 10.0464L24.2216 12.3422C24.6688 12.4852 24.7026 12.883 24.7026 13.0013C24.7026 13.1196 24.6688 13.5135 24.2281 13.6578L24.2255 13.6552Z" fill="var(--fill-0, white)"/>
</svg>
