<svg preserveAspectRatio="none" width="100%" height="100%" overflow="visible" style="display: block;" viewBox="0 0 36 36" fill="none" xmlns="http://www.w3.org/2000/svg">
<g id="sparkles (3) 1" clip-path="url(#clip0_0_56)">
<path id="Vector" d="M23.9981 5.40999L25.9031 6.08349L26.5376 7.98699C26.6396 8.29299 26.9276 8.49999 27.2501 8.49999C27.5726 8.49999 27.8591 8.29299 27.9626 7.98699L28.5941 6.09249L30.4886 5.46099C30.7946 5.35899 31.0016 5.07249 31.0016 4.74999C31.0016 4.42749 30.7946 4.14099 30.4886 4.03899L28.5941 3.40749L27.9626 1.51299C27.7571 0.900986 26.7446 0.900986 26.5391 1.51299L25.9106 3.39849L24.0266 3.98799C23.7191 4.08399 23.5061 4.36599 23.5001 4.68999C23.4941 5.01399 23.6936 5.30349 23.9981 5.40999Z" fill="var(--fill-0, #FF9100)"/>
<path id="Vector_2" d="M35.5276 28.554L31.5406 26.9595L29.9461 22.9725C29.7211 22.4025 28.7806 22.4025 28.5541 22.9725L26.9611 26.952L22.9846 28.4565C22.6981 28.566 22.5061 28.8375 22.5001 29.1435C22.4941 29.4495 22.6756 29.73 22.9591 29.8485L26.9566 31.533L28.5541 35.5275C28.6666 35.8125 28.9441 35.9985 29.2501 35.9985C29.5561 35.9985 29.8336 35.811 29.9461 35.5275L31.5406 31.5405L35.5276 29.946C35.8126 29.832 35.9986 29.556 35.9986 29.25C35.9986 28.944 35.8126 28.668 35.5276 28.554ZM30.6841 30.2685C30.4936 30.345 30.3421 30.4965 30.2671 30.687L29.2486 33.231L28.2301 30.687C28.1566 30.501 28.0111 30.3525 27.8251 30.2745L25.2676 29.196L27.7996 28.2375C27.9961 28.1625 28.1521 28.0095 28.2301 27.8145L29.2486 25.2705L30.2671 27.8145C30.3436 28.005 30.4936 28.1565 30.6841 28.233L33.2281 29.2515L30.6841 30.2685Z" fill="var(--fill-0, #FF9100)"/>
<path id="Vector_3" d="M28.4025 18.6885C29.373 18.378 30 17.5185 30 16.5C30 15.4815 29.373 14.622 28.3845 14.3055L19.734 11.7675L17.217 3.129C16.92 2.154 16.068 1.515 15.0495 1.5015C14.0505 1.5435 13.164 2.1045 12.831 3.096L10.2675 11.766L1.6275 14.2845C0.6525 14.5815 0.0134995 15.4335 -5.36435e-07 16.452C-0.0135005 17.4705 0.602999 18.3375 1.5945 18.6705L10.2675 21.234L12.8115 29.904C13.122 30.8745 13.9815 31.5015 15 31.5015C16.0185 31.5015 16.878 30.8745 17.1945 29.886L19.734 21.2355L28.3845 18.6975L28.4025 18.6915V18.6885ZM27.9525 17.2575L18.9195 19.9095C18.6735 19.9815 18.483 20.1735 18.411 20.418L15.762 29.445C15.597 29.9595 15.138 30 15.0015 30C14.865 30 14.406 29.9595 14.247 29.463L11.592 20.4195C11.52 20.175 11.3295 19.983 11.085 19.911L2.0475 17.2395C1.5345 17.0685 1.5015 16.608 1.503 16.4715C1.5045 16.335 1.551 15.876 2.0595 15.7215L11.085 13.092C11.331 13.0215 11.523 12.8295 11.595 12.585L14.2665 3.5475C14.4345 3.0465 14.877 3.003 15.024 3.003H15.033C15.1695 3.0045 15.6285 3.051 15.783 3.5595L18.4125 12.5835C18.4845 12.8295 18.675 13.0215 18.921 13.0935L27.948 15.7425C28.464 15.9075 28.503 16.3665 28.503 16.503C28.503 16.6395 28.464 17.094 27.9555 17.2605L27.9525 17.2575Z" fill="var(--fill-0, white)"/>
</g>
<defs>
<clipPath id="clip0_0_56">
<rect width="36" height="36" fill="white"/>
</clipPath>
</defs>
</svg>
