<svg preserveAspectRatio="none" width="100%" height="100%" overflow="visible" style="display: block;" viewBox="0 0 23.3334 23.3333" fill="none" xmlns="http://www.w3.org/2000/svg">
<path id="Vector" d="M11.6667 8.16667C9.73306 8.16667 8.16667 9.73362 8.16667 11.6667C8.16667 13.6002 9.73364 15.1667 11.6667 15.1667C13.6002 15.1667 15.1667 13.5997 15.1667 11.6667C15.1667 9.73315 13.5997 8.16667 11.6667 8.16667ZM11.6667 5.83333C14.8872 5.83333 17.5 8.44328 17.5 11.6667C17.5 14.8872 14.8901 17.5 11.6667 17.5C8.44612 17.5 5.83333 14.89 5.83333 11.6667C5.83333 8.44612 8.44328 5.83333 11.6667 5.83333ZM19.25 5.54067C19.25 6.3458 18.5958 6.99903 17.7917 6.99903C16.9866 6.99903 16.3334 6.3448 16.3334 5.54067C16.3334 4.73655 16.9875 4.08333 17.7917 4.08333C18.5947 4.08232 19.25 4.73655 19.25 5.54067ZM11.6667 2.33333C8.77977 2.33333 8.30923 2.34097 6.9665 2.40077C6.0517 2.44371 5.43847 2.56675 4.86871 2.78795C4.36238 2.98432 3.99713 3.21881 3.60796 3.60797C3.21731 3.99863 2.98324 4.3629 2.78766 4.86947C2.56594 5.44054 2.44294 6.05279 2.40077 6.96634C2.34039 8.2544 2.33333 8.70456 2.33333 11.6667C2.33333 14.5536 2.34098 15.0241 2.40076 16.3667C2.44372 17.2811 2.56692 17.8953 2.78759 18.4637C2.98447 18.9707 3.21944 19.3368 3.60673 19.7241C3.99893 20.1158 4.36428 20.3506 4.86604 20.5443C5.44275 20.7672 6.05558 20.8904 6.96633 20.9326C8.2544 20.9929 8.70456 21 11.6667 21C14.5536 21 15.0241 20.9923 16.3667 20.9326C17.2792 20.8897 17.8938 20.7662 18.4637 20.5457C18.9693 20.3493 19.3366 20.1136 19.7242 19.7266C20.1164 19.3338 20.3508 18.9693 20.5447 18.4663C20.767 17.8918 20.8905 17.2781 20.9326 16.367C20.9929 15.0789 21 14.6287 21 11.6667C21 8.77977 20.9923 8.30925 20.9326 6.9666C20.8897 6.0539 20.7661 5.4384 20.5454 4.86871C20.3495 4.36378 20.1142 3.99741 19.7253 3.60797C19.334 3.21667 18.9707 2.98308 18.4638 2.78766C17.8932 2.56613 17.28 2.44295 16.367 2.40078C15.079 2.34039 14.6287 2.33333 11.6667 2.33333ZM11.6667 0C14.8361 0 15.2318 0.0116666 16.4763 0.0699999C17.7177 0.127365 18.5646 0.32375 19.3084 0.6125C20.0773 0.909032 20.7268 1.30958 21.3752 1.95805C22.0227 2.60653 22.4234 3.25792 22.7209 4.025C23.0086 4.76778 23.205 5.61555 23.2634 6.85708C23.3188 8.10153 23.3334 8.49722 23.3334 11.6667C23.3334 14.8361 23.3217 15.2318 23.2634 16.4762C23.206 17.7178 23.0086 18.5646 22.7209 19.3083C22.4243 20.0774 22.0227 20.7268 21.3752 21.3753C20.7268 22.0228 20.0744 22.4233 19.3084 22.7208C18.5646 23.0086 17.7177 23.205 16.4763 23.2633C15.2318 23.3187 14.8361 23.3333 11.6667 23.3333C8.49722 23.3333 8.10152 23.3217 6.85708 23.2633C5.61555 23.2059 4.76972 23.0086 4.025 22.7208C3.25694 22.4243 2.60652 22.0228 1.95805 21.3753C1.30958 20.7268 0.91 20.0745 0.6125 19.3083C0.32375 18.5646 0.128334 17.7178 0.0700002 16.4762C0.0145835 15.2318 0 14.8361 0 11.6667C0 8.49722 0.0116669 8.10153 0.0700002 6.85708C0.127354 5.61458 0.32375 4.76875 0.6125 4.025C0.90902 3.25695 1.30958 2.60653 1.95805 1.95805C2.60652 1.30958 3.25792 0.91 4.025 0.6125C4.76875 0.32375 5.61458 0.128333 6.85708 0.0699999C8.10152 0.0145833 8.49722 0 11.6667 0Z" fill="var(--fill-0, white)"/>
</svg>
