<svg preserveAspectRatio="none" width="100%" height="100%" overflow="visible" style="display: block;" viewBox="0 0 22.1245 22.1246" fill="none" xmlns="http://www.w3.org/2000/svg">
<path id="Vector" d="M14.6052 13.3961C14.7263 13.3155 14.8657 13.2663 15.0107 13.2532C15.1556 13.24 15.3016 13.2632 15.4353 13.3206L20.5934 15.6317C20.7673 15.706 20.9124 15.8346 21.007 15.9983C21.1016 16.1619 21.1407 16.3518 21.1184 16.5395C20.9485 17.8094 20.3232 18.9744 19.3587 19.8178C18.3942 20.6612 17.1562 21.1255 15.875 21.1245C11.9299 21.1245 8.14639 19.5574 5.35679 16.7678C2.56718 13.9782 1 10.1946 1 6.24955C0.999022 4.96833 1.4634 3.73037 2.30677 2.76588C3.15014 1.8014 4.31511 1.17604 5.585 1.00611C5.77272 0.983811 5.96262 1.02291 6.12627 1.11755C6.28992 1.21219 6.41852 1.35728 6.49281 1.53111L8.80391 6.69361C8.86069 6.82621 8.88381 6.97078 8.87122 7.11447C8.85862 7.25816 8.8107 7.39651 8.73172 7.51721L6.39438 10.2964C6.31147 10.4215 6.26244 10.566 6.25208 10.7157C6.24173 10.8655 6.27041 11.0153 6.33531 11.1506C7.23984 13.0024 9.15391 14.8935 11.0111 15.7892C11.1471 15.8539 11.2977 15.8819 11.4479 15.8706C11.598 15.8593 11.7427 15.809 11.8675 15.7247L14.6052 13.3961Z" stroke="var(--stroke-0, #FF9100)" stroke-width="2" stroke-linecap="round" stroke-linejoin="round"/>
</svg>
