<svg preserveAspectRatio="none" width="100%" height="100%" overflow="visible" style="display: block;" viewBox="0 0 58 63" fill="none" xmlns="http://www.w3.org/2000/svg">
<g id="arrow-small-down 2">
<path id="Arrow 3" d="M7.41421 6.58579C6.63316 5.80474 5.36683 5.80474 4.58579 6.58579C3.80474 7.36683 3.80474 8.63316 4.58579 9.41421L6 8L7.41421 6.58579ZM39 43C40.1046 43 41 42.1046 41 41L41 23C41 21.8954 40.1046 21 39 21C37.8954 21 37 21.8954 37 23L37 39L21 39C19.8954 39 19 39.8954 19 41C19 42.1046 19.8954 43 21 43L39 43ZM6 8L4.58579 9.41421L37.5858 42.4142L39 41L40.4142 39.5858L7.41421 6.58579L6 8Z" fill="var(--stroke-0, #FF9100)"/>
</g>
</svg>
